<?xml version="1.0" encoding="UTF-8"?>
<svg width="450px" height="147px" viewBox="0 0 450 147" version="1.1" xmlns="http://www.w3.org/2000/svg" xmlns:xlink="http://www.w3.org/1999/xlink">
    <!-- Generator: Sketch 55.2 (78181) - https://sketchapp.com -->
    <title>FINDINGYOUTHEFINEANSWER,BANKSALAD</title>
    <desc>Created with Sketch.</desc>
    <g id="BankSalad-Career" stroke="none" stroke-width="1" fill="none" fill-rule="evenodd" opacity="0.849330357">
        <g id="main_desktop" transform="translate(-495.000000, -412.000000)" fill="#FFFFFF" fill-rule="nonzero">
            <path d="M566.691667,450 L566.691667,413 L589.491667,413 L589.491667,419.15 L574.091667,419.15 L574.091667,428.8 L587.241667,428.8 L587.241667,435 L574.091667,435 L574.091667,450 L566.691667,450 Z M595.184091,450 L595.184091,413 L602.584091,413 L602.584091,450 L595.184091,450 Z M610.926515,450 L610.926515,413 L618.476515,413 L629.226515,432.7 L632.926515,440.7 L633.176515,440.7 C632.776515,436.85 632.226515,431.95 632.226515,427.75 L632.226515,413 L639.226515,413 L639.226515,450 L631.726515,450 L621.026515,430.2 L617.276515,422.25 L617.026515,422.25 C617.376515,426.25 617.926515,430.9 617.926515,435.15 L617.926515,450 L610.926515,450 Z M647.618939,450 L647.618939,413 L657.768939,413 C669.068939,413 676.068939,418.85 676.068939,431.35 C676.068939,443.8 669.068939,450 658.168939,450 L647.618939,450 Z M655.018939,444.05 L657.318939,444.05 C664.218939,444.05 668.518939,440.35 668.518939,431.35 C668.518939,422.3 664.218939,418.9 657.318939,418.9 L655.018939,418.9 L655.018939,444.05 Z M682.561364,450 L682.561364,413 L689.961364,413 L689.961364,450 L682.561364,450 Z M698.303788,450 L698.303788,413 L705.853788,413 L716.603788,432.7 L720.303788,440.7 L720.553788,440.7 C720.153788,436.85 719.603788,431.95 719.603788,427.75 L719.603788,413 L726.603788,413 L726.603788,450 L719.103788,450 L708.403788,430.2 L704.653788,422.25 L704.403788,422.25 C704.753788,426.25 705.303788,430.9 705.303788,435.15 L705.303788,450 L698.303788,450 Z M750.896212,450.7 C740.796212,450.7 733.146212,444 733.146212,431.65 C733.146212,419.45 741.046212,412.3 750.896212,412.3 C756.246212,412.3 759.946212,414.6 762.346212,417.05 L758.396212,421.75 C756.596212,420 754.496212,418.65 751.146212,418.65 C744.996212,418.65 740.696212,423.45 740.696212,431.4 C740.696212,439.45 744.396212,444.3 751.646212,444.3 C753.446212,444.3 755.246212,443.8 756.296212,442.9 L756.296212,435.6 L749.746212,435.6 L749.746212,429.55 L762.896212,429.55 L762.896212,446.25 C760.396212,448.7 756.046212,450.7 750.896212,450.7 Z M786.931061,450 L786.931061,436.45 L775.831061,413 L783.681061,413 L787.381061,422 C788.431061,424.75 789.431061,427.35 790.581061,430.2 L790.781061,430.2 C791.931061,427.35 793.031061,424.75 794.081061,422 L797.781061,413 L805.481061,413 L794.331061,436.45 L794.331061,450 L786.931061,450 Z M822.723485,450.7 C812.923485,450.7 806.173485,443.35 806.173485,431.35 C806.173485,419.3 812.923485,412.3 822.723485,412.3 C832.523485,412.3 839.273485,419.35 839.273485,431.35 C839.273485,443.35 832.523485,450.7 822.723485,450.7 Z M822.723485,444.3 C828.223485,444.3 831.723485,439.25 831.723485,431.35 C831.723485,423.4 828.223485,418.65 822.723485,418.65 C817.223485,418.65 813.723485,423.4 813.723485,431.35 C813.723485,439.25 817.223485,444.3 822.723485,444.3 Z M859.965909,450.7 C850.965909,450.7 845.565909,445.65 845.565909,433.35 L845.565909,413 L852.965909,413 L852.965909,434 C852.965909,441.7 855.615909,444.3 859.965909,444.3 C864.365909,444.3 867.165909,441.7 867.165909,434 L867.165909,413 L874.265909,413 L874.265909,433.35 C874.265909,445.65 869.015909,450.7 859.965909,450.7 Z M505.935606,504 L505.935606,473.15 L495.535606,473.15 L495.535606,467 L523.835606,467 L523.835606,473.15 L513.335606,473.15 L513.335606,504 L505.935606,504 Z M529.07803,504 L529.07803,467 L536.47803,467 L536.47803,481.55 L550.47803,481.55 L550.47803,467 L557.82803,467 L557.82803,504 L550.47803,504 L550.47803,488 L536.47803,488 L536.47803,504 L529.07803,504 Z M566.170455,504 L566.170455,467 L588.870455,467 L588.870455,473.15 L573.570455,473.15 L573.570455,481.7 L586.570455,481.7 L586.570455,487.9 L573.570455,487.9 L573.570455,497.8 L589.420455,497.8 L589.420455,504 L566.170455,504 Z M606.755303,504 L606.755303,467 L629.555303,467 L629.555303,473.15 L614.155303,473.15 L614.155303,482.8 L627.305303,482.8 L627.305303,489 L614.155303,489 L614.155303,504 L606.755303,504 Z M635.247727,504 L635.247727,467 L642.647727,467 L642.647727,504 L635.247727,504 Z M650.990152,504 L650.990152,467 L658.540152,467 L669.290152,486.7 L672.990152,494.7 L673.240152,494.7 C672.840152,490.85 672.290152,485.95 672.290152,481.75 L672.290152,467 L679.290152,467 L679.290152,504 L671.790152,504 L661.090152,484.2 L657.340152,476.25 L657.090152,476.25 C657.440152,480.25 657.990152,484.9 657.990152,489.15 L657.990152,504 L650.990152,504 Z M687.682576,504 L687.682576,467 L710.382576,467 L710.382576,473.15 L695.082576,473.15 L695.082576,481.7 L708.082576,481.7 L708.082576,487.9 L695.082576,487.9 L695.082576,497.8 L710.932576,497.8 L710.932576,504 L687.682576,504 Z M735.217424,488.75 L744.017424,488.75 L742.917424,484.7 C741.767424,480.85 740.767424,476.6 739.667424,472.6 L739.467424,472.6 C738.517424,476.65 737.417424,480.85 736.317424,484.7 L735.217424,488.75 Z M748.217424,504 L745.617424,494.5 L733.617424,494.5 L731.017424,504 L723.517424,504 L735.367424,467 L744.067424,467 L755.967424,504 L748.217424,504 Z M759.559848,504 L759.559848,467 L767.109848,467 L777.859848,486.7 L781.559848,494.7 L781.809848,494.7 C781.409848,490.85 780.859848,485.95 780.859848,481.75 L780.859848,467 L787.859848,467 L787.859848,504 L780.359848,504 L769.659848,484.2 L765.909848,476.25 L765.659848,476.25 C766.009848,480.25 766.559848,484.9 766.559848,489.15 L766.559848,504 L759.559848,504 Z M807.302273,504.7 C802.352273,504.7 797.402273,502.75 793.802273,499.3 L798.052273,494.2 C800.702273,496.65 804.202273,498.3 807.452273,498.3 C811.302273,498.3 813.352273,496.65 813.352273,494.05 C813.352273,491.3 811.102273,490.45 807.802273,489.05 L802.852273,486.95 C799.102273,485.4 795.352273,482.4 795.352273,477 C795.352273,470.95 800.652273,466.3 808.152273,466.3 C812.452273,466.3 816.752273,468 819.752273,471.05 L816.002273,475.7 C813.652273,473.75 811.202273,472.65 808.152273,472.65 C804.902273,472.65 802.802273,474.1 802.802273,476.55 C802.802273,479.2 805.452273,480.15 808.602273,481.4 L813.452273,483.45 C817.952273,485.3 820.902273,488.15 820.902273,493.5 C820.902273,499.55 815.852273,504.7 807.302273,504.7 Z M830.194697,504 L823.044697,467 L830.594697,467 L833.544697,485.05 C834.094697,488.95 834.694697,492.9 835.244697,496.85 L835.444697,496.85 C836.194697,492.9 836.994697,488.9 837.794697,485.05 L842.094697,467 L848.394697,467 L852.694697,485.05 C853.494697,488.85 854.244697,492.85 855.044697,496.85 L855.294697,496.85 C855.844697,492.85 856.394697,488.9 856.944697,485.05 L859.844697,467 L866.894697,467 L860.044697,504 L850.844697,504 L846.694697,485.7 C846.094697,482.8 845.544697,479.95 845.094697,477.15 L844.894697,477.15 C844.394697,479.95 843.894697,482.8 843.294697,485.7 L839.244697,504 L830.194697,504 Z M871.687121,504 L871.687121,467 L894.387121,467 L894.387121,473.15 L879.087121,473.15 L879.087121,481.7 L892.087121,481.7 L892.087121,487.9 L879.087121,487.9 L879.087121,497.8 L894.937121,497.8 L894.937121,504 L871.687121,504 Z M909.079545,472.85 L909.079545,484.15 L913.879545,484.15 C918.629545,484.15 921.229545,482.15 921.229545,478.2 C921.229545,474.2 918.629545,472.85 913.879545,472.85 L909.079545,472.85 Z M930.079545,504 L921.829545,504 L914.229545,490 L909.079545,490 L909.079545,504 L901.679545,504 L901.679545,467 L914.579545,467 C922.329545,467 928.479545,469.7 928.479545,478.2 C928.479545,483.75 925.679545,487.2 921.429545,488.85 L930.079545,504 Z M934.67197,514.65 L933.12197,510.65 C936.97197,509.2 939.12197,506.7 939.12197,503.8 L938.67197,503.8 C936.27197,503.8 934.07197,502.25 934.07197,499.45 C934.07197,496.8 936.22197,495.1 938.82197,495.1 C942.22197,495.1 944.12197,497.8 944.12197,502.35 C944.12197,508.2 940.67197,512.65 934.67197,514.65 Z M579.709091,558 L579.709091,521 L591.959091,521 C599.559091,521 605.359091,523.2 605.359091,530.1 C605.359091,533.5 603.459091,537 600.309091,538.1 L600.309091,538.35 C604.309091,539.3 607.259091,542.1 607.259091,547.1 C607.259091,554.55 601.059091,558 592.909091,558 L579.709091,558 Z M587.109091,536.05 L591.409091,536.05 C596.109091,536.05 598.159091,534.15 598.159091,531.2 C598.159091,527.95 595.959091,526.65 591.509091,526.65 L587.109091,526.65 L587.109091,536.05 Z M587.109091,552.3 L592.259091,552.3 C597.309091,552.3 600.059091,550.5 600.059091,546.65 C600.059091,543.05 597.359091,541.55 592.259091,541.55 L587.109091,541.55 L587.109091,552.3 Z M619.951515,542.75 L628.751515,542.75 L627.651515,538.7 C626.501515,534.85 625.501515,530.6 624.401515,526.6 L624.201515,526.6 C623.251515,530.65 622.151515,534.85 621.051515,538.7 L619.951515,542.75 Z M632.951515,558 L630.351515,548.5 L618.351515,548.5 L615.751515,558 L608.251515,558 L620.101515,521 L628.801515,521 L640.701515,558 L632.951515,558 Z M644.293939,558 L644.293939,521 L651.843939,521 L662.593939,540.7 L666.293939,548.7 L666.543939,548.7 C666.143939,544.85 665.593939,539.95 665.593939,535.75 L665.593939,521 L672.593939,521 L672.593939,558 L665.093939,558 L654.393939,538.2 L650.643939,530.25 L650.393939,530.25 C650.743939,534.25 651.293939,538.9 651.293939,543.15 L651.293939,558 L644.293939,558 Z M680.986364,558 L680.986364,521 L688.386364,521 L688.386364,537.05 L688.536364,537.05 L700.786364,521 L708.936364,521 L697.636364,535.55 L710.936364,558 L702.786364,558 L693.236364,541.4 L688.386364,547.6 L688.386364,558 L680.986364,558 Z M724.628788,558.7 C719.678788,558.7 714.728788,556.75 711.128788,553.3 L715.378788,548.2 C718.028788,550.65 721.528788,552.3 724.778788,552.3 C728.628788,552.3 730.678788,550.65 730.678788,548.05 C730.678788,545.3 728.428788,544.45 725.128788,543.05 L720.178788,540.95 C716.428788,539.4 712.678788,536.4 712.678788,531 C712.678788,524.95 717.978788,520.3 725.478788,520.3 C729.778788,520.3 734.078788,522 737.078788,525.05 L733.328788,529.7 C730.978788,527.75 728.528788,526.65 725.478788,526.65 C722.228788,526.65 720.128788,528.1 720.128788,530.55 C720.128788,533.2 722.778788,534.15 725.928788,535.4 L730.778788,537.45 C735.278788,539.3 738.228788,542.15 738.228788,547.5 C738.228788,553.55 733.178788,558.7 724.628788,558.7 Z M750.971212,542.75 L759.771212,542.75 L758.671212,538.7 C757.521212,534.85 756.521212,530.6 755.421212,526.6 L755.221212,526.6 C754.271212,530.65 753.171212,534.85 752.071212,538.7 L750.971212,542.75 Z M763.971212,558 L761.371212,548.5 L749.371212,548.5 L746.771212,558 L739.271212,558 L751.121212,521 L759.821212,521 L771.721212,558 L763.971212,558 Z M775.313636,558 L775.313636,521 L782.713636,521 L782.713636,551.8 L797.713636,551.8 L797.713636,558 L775.313636,558 Z M810.106061,542.75 L818.906061,542.75 L817.806061,538.7 C816.656061,534.85 815.656061,530.6 814.556061,526.6 L814.356061,526.6 C813.406061,530.65 812.306061,534.85 811.206061,538.7 L810.106061,542.75 Z M823.106061,558 L820.506061,548.5 L808.506061,548.5 L805.906061,558 L798.406061,558 L810.256061,521 L818.956061,521 L830.856061,558 L823.106061,558 Z M834.448485,558 L834.448485,521 L844.598485,521 C855.898485,521 862.898485,526.85 862.898485,539.35 C862.898485,551.8 855.898485,558 844.998485,558 L834.448485,558 Z M841.848485,552.05 L844.148485,552.05 C851.048485,552.05 855.348485,548.35 855.348485,539.35 C855.348485,530.3 851.048485,526.9 844.148485,526.9 L841.848485,526.9 L841.848485,552.05 Z" id="FINDINGYOUTHEFINEANSWER,BANKSALAD"></path>
        </g>
    </g>
</svg>