<svg xmlns="http://www.w3.org/2000/svg" xmlns:xlink="http://www.w3.org/1999/xlink" width="154" height="48" viewBox="0 0 154 48">
    <defs>
        <path id="a" d="M0 .116h46.492v46.6H0z"/>
    </defs>
    <g fill="none" fill-rule="evenodd">
        <path fill="#FFF" d="M24.43 32.197l4.542-4.59-6.298-.46zM18.895 17.045l1.756 5.05 4.542-4.59z"/>
        <g transform="translate(0 .631)">
            <mask id="b" fill="#fff">
                <use xlink:href="#a"/>
            </mask>
            <path fill="#FFF" d="M35.252 27.279L23.762 38.4a2.125 2.125 0 0 1-3.01-.053 2.137 2.137 0 0 1 .053-3.017l.681-.66-2.698-7.43a2.134 2.134 0 0 1-1.456-4.01l-2.698-7.43-.945-.066a2.132 2.132 0 0 1-1.975-2.277 2.132 2.132 0 0 1 2.272-1.98l15.934 1.117c2.043.144 2.951 2.645 1.478 4.07l-2.38 2.304-3.763 3.643 5.22.366 3.299.231c2.043.143 2.95 2.644 1.478 4.07m9.832-11.83C40.694 3.36 27.358-2.874 15.298 1.527c-12.062 4.4-18.28 17.767-13.89 29.856 4.39 12.089 17.726 18.323 29.786 13.922 12.06-4.4 18.28-17.767 13.89-29.856" mask="url(#b)"/>
        </g>
        <path fill="#FFF" fill-rule="nonzero" d="M64.637 32.1c-4.661 0-8.123-3.598-8.123-8.146v-.045c0-4.504 3.394-8.192 8.259-8.192 2.376 0 3.983.634 5.295 1.607.362.271.679.769.679 1.38a1.7 1.7 0 0 1-1.72 1.697c-.475 0-.792-.18-1.04-.34-.974-.723-1.992-1.13-3.237-1.13-2.67 0-4.593 2.217-4.593 4.932v.046c0 2.715 1.878 4.978 4.593 4.978 1.471 0 2.444-.453 3.44-1.245a1.63 1.63 0 0 1 1.04-.384c.883 0 1.63.724 1.63 1.606 0 .543-.271.973-.588 1.245-1.426 1.244-3.1 1.991-5.635 1.991zm8.724-1.765c0-.249.09-.498.204-.747l5.521-12.468c.385-.86 1.086-1.38 2.037-1.38h.203c.95 0 1.63.52 2.014 1.38l5.522 12.468c.113.25.18.476.18.702 0 .928-.723 1.674-1.651 1.674-.815 0-1.358-.475-1.675-1.199l-1.063-2.49h-6.97l-1.109 2.603c-.294.679-.882 1.086-1.606 1.086-.905 0-1.607-.724-1.607-1.629zm5.612-5.137h4.39l-2.195-5.227-2.195 5.227zm13.34 5.024V17.73c0-.973.77-1.742 1.743-1.742h5.498c2.014 0 3.576.565 4.617 1.606.882.883 1.357 2.127 1.357 3.62v.046c0 2.49-1.244 4.028-3.168 4.82l2.422 2.942c.34.43.565.792.565 1.335 0 .973-.814 1.606-1.651 1.606-.792 0-1.313-.384-1.72-.905l-3.395-4.3h-2.783v3.463c0 .973-.77 1.742-1.742 1.742-.973 0-1.743-.769-1.743-1.742zm3.485-6.54h3.53c1.697 0 2.67-.905 2.67-2.24v-.045c0-1.494-1.04-2.263-2.738-2.263h-3.462v4.548zm15.15 8.147c-.972 0-1.742-.77-1.742-1.743V17.731c0-.973.77-1.742 1.743-1.742h8.78c.86 0 1.56.701 1.56 1.56 0 .86-.7 1.54-1.56 1.54h-7.06v3.213h6.041c.86 0 1.562.701 1.562 1.561s-.702 1.54-1.562 1.54h-6.042v3.325h7.174c.86 0 1.561.702 1.561 1.562 0 .86-.701 1.539-1.561 1.539h-8.893zm15.694 0c-.973 0-1.742-.77-1.742-1.743V17.731c0-.973.77-1.742 1.742-1.742h8.78c.86 0 1.561.701 1.561 1.56 0 .86-.701 1.54-1.56 1.54h-7.061v3.213h6.042c.86 0 1.561.701 1.561 1.561s-.701 1.54-1.561 1.54h-6.042v3.325h7.173c.86 0 1.562.702 1.562 1.562 0 .86-.702 1.539-1.562 1.539h-8.893zm13.951-1.607V17.73c0-.973.77-1.742 1.743-1.742h5.499c2.013 0 3.575.565 4.616 1.606.882.883 1.357 2.127 1.357 3.62v.046c0 2.49-1.244 4.028-3.168 4.82l2.422 2.942c.34.43.565.792.565 1.335 0 .973-.814 1.606-1.651 1.606-.792 0-1.313-.384-1.72-.905l-3.395-4.3h-2.783v3.463c0 .973-.77 1.742-1.742 1.742-.973 0-1.743-.769-1.743-1.742zm3.485-6.54h3.53c1.697 0 2.67-.905 2.67-2.24v-.045c0-1.494-1.04-2.263-2.738-2.263h-3.462v4.548z"/>
    </g>
</svg>
