<?xml version="1.0" encoding="UTF-8"?>
<svg width="154px" height="48px" viewBox="0 0 154 48" version="1.1" xmlns="http://www.w3.org/2000/svg" xmlns:xlink="http://www.w3.org/1999/xlink">
    <!-- Generator: Sketch 55.2 (78181) - https://sketchapp.com -->
    <title>Group 2</title>
    <desc>Created with Sketch.</desc>
    <defs>
        <polygon id="path-1" points="1.46274434e-05 0.115623391 46.4919336 0.115623391 46.4919336 46.7163838 1.46274434e-05 46.7163838"></polygon>
    </defs>
    <g id="Symbols" stroke="none" stroke-width="1" fill="none" fill-rule="evenodd">
        <g id="Nav/Global/white_BG" transform="translate(-36.000000, -26.000000)">
            <g id="Group-2" transform="translate(36.000000, 26.000000)">
                <g id="Group-6-Copy-3" transform="translate(-0.000000, 0.000000)">
                    <polygon id="Fill-1" fill="#00C68E" points="24.4304687 32.1965217 28.9721143 27.6067621 22.6738286 27.146087"></polygon>
                    <polygon id="Fill-2" fill="#00C68E" points="18.8948571 17.0452174 20.6508959 22.0956522 25.1931429 17.50595"></polygon>
                    <g id="Group-5" transform="translate(0.000000, 0.631304)">
                        <mask id="mask-2" fill="white">
                            <use xlink:href="#path-1"></use>
                        </mask>
                        <g id="Clip-4"></g>
                        <path d="M35.252083,27.2788282 L23.7616323,38.4008641 C22.9168747,39.2189872 21.5693407,39.1956289 20.7525475,38.348308 C19.9357544,37.5004031 19.959058,36.1497117 20.8049808,35.3310046 L21.4860301,34.6717177 L18.7880492,27.2414549 C17.6834559,27.6443849 16.4623443,27.0732755 16.0603562,25.9660939 C15.6577855,24.8589123 16.2275599,23.6349395 17.3321533,23.2320095 L14.6341724,15.8017467 L13.6892091,15.7351756 C12.5164525,15.6534217 11.6326613,14.6338336 11.7142241,13.4583292 C11.7963695,12.2828247 12.8135741,11.3969626 13.9863307,11.4781326 L29.9202063,12.5952414 C31.9627718,12.7388947 32.8710318,15.2399805 31.3982407,16.6654184 L29.0189373,18.9685429 L25.2548141,22.6118476 L30.4748333,22.9779884 L33.7740486,23.2092352 C35.8171967,23.3523045 36.7248741,25.8533903 35.252083,27.2788282 M45.083896,15.4490369 C40.6940695,3.35996903 27.3579692,-2.87376683 15.297744,1.52692951 C3.23635364,5.9270419 -2.98222726,19.2938067 1.40818174,31.3828746 C5.79742556,43.4719425 19.133526,49.7056784 31.1943337,45.304982 C43.2545589,40.9054536 49.474305,27.5375209 45.083896,15.4490369" id="Fill-3" fill="#00C68E" mask="url(#mask-2)"></path>
                    </g>
                </g>
                <path d="M64.6372571,32.1001143 C59.9757714,32.1001143 56.5136,28.5021714 56.5136,23.9538286 L56.5136,23.9085714 C56.5136,19.4054857 59.9078857,15.7170286 64.7730286,15.7170286 C67.1490286,15.7170286 68.7556571,16.3506286 70.0681143,17.3236571 C70.4301714,17.5952 70.7469714,18.0930286 70.7469714,18.704 C70.7469714,19.6544 69.9776,20.4011429 69.0272,20.4011429 C68.552,20.4011429 68.2352,20.2201143 67.9862857,20.0617143 C67.0132571,19.3376 65.9949714,18.9302857 64.7504,18.9302857 C62.0802286,18.9302857 60.1568,21.1478857 60.1568,23.8633143 L60.1568,23.9085714 C60.1568,26.624 62.0349714,28.8868571 64.7504,28.8868571 C66.2212571,28.8868571 67.1942857,28.4342857 68.1899429,27.6422857 C68.4614857,27.416 68.8235429,27.2576 69.2308571,27.2576 C70.1133714,27.2576 70.8601143,27.9817143 70.8601143,28.8642286 C70.8601143,29.4073143 70.5885714,29.8372571 70.2717714,30.1088 C68.8461714,31.3533714 67.1716571,32.1001143 64.6372571,32.1001143 Z M73.361237,30.3350857 C73.361237,30.0861714 73.4517513,29.8372571 73.5648941,29.5883429 L79.0862656,17.12 C79.4709513,16.2601143 80.172437,15.7396571 81.122837,15.7396571 L81.3264941,15.7396571 C82.2768941,15.7396571 82.9557513,16.2601143 83.340437,17.12 L88.8618084,29.5883429 C88.9749513,29.8372571 89.042837,30.0635429 89.042837,30.2898286 C89.042837,31.2176 88.3187227,31.9643429 87.3909513,31.9643429 C86.5763227,31.9643429 86.033237,31.4891429 85.716437,30.7650286 L84.6528941,28.2758857 L77.6832941,28.2758857 L76.5744941,30.8781714 C76.2803227,31.5570286 75.6919798,31.9643429 74.9678656,31.9643429 C74.0627227,31.9643429 73.361237,31.2402286 73.361237,30.3350857 Z M78.9731227,25.1984 L83.3630656,25.1984 L81.1680941,19.9712 L78.9731227,25.1984 Z M92.3133311,30.2219429 L92.3133311,17.7309714 C92.3133311,16.7579429 93.0827025,15.9885714 94.0557311,15.9885714 L99.554474,15.9885714 C101.568417,15.9885714 103.129788,16.5542857 104.170703,17.5952 C105.053217,18.4777143 105.528417,19.7222857 105.528417,21.2157714 L105.528417,21.2610286 C105.528417,23.7501714 104.283845,25.2889143 102.360417,26.0809143 L104.781674,29.0226286 C105.121103,29.4525714 105.347388,29.8146286 105.347388,30.3577143 C105.347388,31.3307429 104.53276,31.9643429 103.695503,31.9643429 C102.903503,31.9643429 102.383045,31.5796571 101.975731,31.0592 L98.5814454,26.7597714 L95.7981311,26.7597714 L95.7981311,30.2219429 C95.7981311,31.1949714 95.0287597,31.9643429 94.0557311,31.9643429 C93.0827025,31.9643429 92.3133311,31.1949714 92.3133311,30.2219429 Z M95.7981311,23.6822857 L99.3281882,23.6822857 C101.025331,23.6822857 101.99836,22.7771429 101.99836,21.4420571 L101.99836,21.3968 C101.99836,19.9033143 100.957445,19.1339429 99.2603025,19.1339429 L95.7981311,19.1339429 L95.7981311,23.6822857 Z M110.948625,31.8285714 C109.975597,31.8285714 109.206225,31.0592 109.206225,30.0861714 L109.206225,17.7309714 C109.206225,16.7579429 109.975597,15.9885714 110.948625,15.9885714 L119.728511,15.9885714 C120.588397,15.9885714 121.289882,16.6900571 121.289882,17.5499429 C121.289882,18.4098286 120.588397,19.0886857 119.728511,19.0886857 L112.668397,19.0886857 L112.668397,22.3019429 L118.710225,22.3019429 C119.570111,22.3019429 120.271597,23.0034286 120.271597,23.8633143 C120.271597,24.7232 119.570111,25.4020571 118.710225,25.4020571 L112.668397,25.4020571 L112.668397,28.7284571 L119.841654,28.7284571 C120.70154,28.7284571 121.403025,29.4299429 121.403025,30.2898286 C121.403025,31.1497143 120.70154,31.8285714 119.841654,31.8285714 L110.948625,31.8285714 Z M126.642205,31.8285714 C125.669176,31.8285714 124.899805,31.0592 124.899805,30.0861714 L124.899805,17.7309714 C124.899805,16.7579429 125.669176,15.9885714 126.642205,15.9885714 L135.422091,15.9885714 C136.281976,15.9885714 136.983462,16.6900571 136.983462,17.5499429 C136.983462,18.4098286 136.281976,19.0886857 135.422091,19.0886857 L128.361976,19.0886857 L128.361976,22.3019429 L134.403805,22.3019429 C135.263691,22.3019429 135.965176,23.0034286 135.965176,23.8633143 C135.965176,24.7232 135.263691,25.4020571 134.403805,25.4020571 L128.361976,25.4020571 L128.361976,28.7284571 L135.535234,28.7284571 C136.395119,28.7284571 137.096605,29.4299429 137.096605,30.2898286 C137.096605,31.1497143 136.395119,31.8285714 135.535234,31.8285714 L126.642205,31.8285714 Z M140.593385,30.2219429 L140.593385,17.7309714 C140.593385,16.7579429 141.362756,15.9885714 142.335785,15.9885714 L147.834528,15.9885714 C149.848471,15.9885714 151.409842,16.5542857 152.450756,17.5952 C153.333271,18.4777143 153.808471,19.7222857 153.808471,21.2157714 L153.808471,21.2610286 C153.808471,23.7501714 152.563899,25.2889143 150.640471,26.0809143 L153.061728,29.0226286 C153.401156,29.4525714 153.627442,29.8146286 153.627442,30.3577143 C153.627442,31.3307429 152.812813,31.9643429 151.975556,31.9643429 C151.183556,31.9643429 150.663099,31.5796571 150.255785,31.0592 L146.861499,26.7597714 L144.078185,26.7597714 L144.078185,30.2219429 C144.078185,31.1949714 143.308813,31.9643429 142.335785,31.9643429 C141.362756,31.9643429 140.593385,31.1949714 140.593385,30.2219429 Z M144.078185,23.6822857 L147.608242,23.6822857 C149.305385,23.6822857 150.278413,22.7771429 150.278413,21.4420571 L150.278413,21.3968 C150.278413,19.9033143 149.237499,19.1339429 147.540356,19.1339429 L144.078185,19.1339429 L144.078185,23.6822857 Z" id="CAREER" fill="#00C68E" fill-rule="nonzero"></path>
            </g>
        </g>
    </g>
</svg>